<svg id="Layer_1" data-name="Layer 1" xmlns="http://www.w3.org/2000/svg" width="64" height="64" viewBox="0 0 64 64"><defs><style>.cls-1{fill:#666;}</style></defs><title>dollar</title><path class="cls-1" d="M24,40a1,1,0,0,0-2,0c0,4.11,3.51,7.5,8,8v3a1,1,0,0,0,2,0v-3c4.49-.44,8-3.84,8-8s-3.51-7.5-8-8v-12C35.39,20.49,38,23,38,26a1,1,0,1,0,2,0c0-4.11-3.51-7.5-8-8V15a1,1,0,0,0-2,0v3c-4.49.44-8,3.84-8,8s3.51,7.5,8,8v12C26.61,45.51,24,43,24,40Zm14,0c0,3-2.61,5.51-6,5.93V34.07C35.39,34.49,38,37,38,40ZM24,26c0-3,2.61-5.51,6-5.93V31.93C26.61,31.51,24,29,24,26Z"/><path class="cls-1" d="M31,60A27,27,0,1,0,4,33,27,27,0,0,0,31,60ZM31,8A25,25,0,1,1,6,33,25,25,0,0,1,31,8Z"/></svg>